<svg id="Layer_1" data-name="Layer 1" xmlns="http://www.w3.org/2000/svg" viewBox="0 0 399.37 81.68"><defs><style>.cls-1{fill:#ac162c;}</style></defs><title>live-oak-logo-wide-red</title><polygon class="cls-1" points="133.37 27.77 129.47 27.77 129.47 58.24 143.02 58.24 143.02 55.09 133.37 55.09 133.37 27.77"/><rect class="cls-1" x="146.57" y="34.43" width="3.48" height="23.81"/><polygon class="cls-1" points="166.14 52.59 157.25 34.43 153.48 34.43 166.14 59.66 178.8 34.43 175.03 34.43 166.14 52.59"/><polygon class="cls-1" points="182.19 58.24 198.37 58.24 198.37 55.78 185.67 55.78 185.67 46.43 197.99 46.43 197.99 43.97 185.67 43.97 185.67 36.89 198.37 36.89 198.37 34.43 182.19 34.43 182.19 58.24"/><path class="cls-1" d="M224.8,30.2a15.89,15.89,0,1,0,15.51,15.93A15.78,15.78,0,0,0,224.8,30.2Zm0,28.6c-6.75,0-12.2-5.78-12.2-12.71a12.21,12.21,0,1,1,24.39,0C237,53,231.55,58.8,224.8,58.8Z" transform="translate(0 -3.21)"/><path class="cls-1" d="M238.12,61.45h3.54L245.17,55h12.41L261,61.45h3.58L251.53,37.5Zm8.36-8.85,5-9.16,4.85,9.16h-9.82Z" transform="translate(0 -3.21)"/><polygon class="cls-1" points="286.13 34.43 282.1 34.43 270.64 44.63 270.64 34.43 267.65 34.43 267.65 58.24 270.64 58.24 270.64 47.98 271.39 47.31 282.42 58.24 286.56 58.24 273.5 45.51 286.13 34.43"/><path class="cls-1" d="M309.45,44.9a6.7,6.7,0,0,0,3.34-6c0-6.32-5.19-8.38-11.37-8.38h-5.6v31h7.9c6.72,0,12.18-2.46,12.18-8.62A8,8,0,0,0,309.45,44.9Zm-9.83-11.21h1.49c4.65,0,7.89.49,7.89,5.17s-3.65,5.26-7.94,5.26h-1.44V33.69Zm3.79,24.55h-3.79V47.08h3.29c4.15,0,9.2.7,9.2,5.5S307.65,58.24,303.41,58.24Z" transform="translate(0 -3.21)"/><path class="cls-1" d="M316.06,61.45h3.54L323.11,55h12.41l3.43,6.49h3.58L329.47,37.5Zm8.36-8.85,5-9.16,4.85,9.16h-9.82Z" transform="translate(0 -3.21)"/><polygon class="cls-1" points="363.79 53.09 345.41 34.41 345.41 58.24 348.04 58.24 348.04 40.63 366.42 59.27 366.42 35.38 363.79 35.38 363.79 53.09"/><polygon class="cls-1" points="376 45.51 388.63 34.43 384.6 34.43 373.14 44.63 373.14 34.43 370.15 34.43 370.15 58.24 373.14 58.24 373.14 47.98 373.89 47.31 384.92 58.24 389.06 58.24 376 45.51"/><ellipse class="cls-1" cx="111.63" cy="48.96" rx="2.64" ry="2.64"/><circle class="cls-1" cx="33.85" cy="16.24" r="2.64"/><path class="cls-1" d="M25.92,24.73a2.63,2.63,0,0,0-1,.2,2.64,2.64,0,0,0-4.77,1.56c0,0.07,0,.14,0,0.2a2.64,2.64,0,1,0-.49,4.44,2.64,2.64,0,1,0,5-1.42,2.65,2.65,0,0,0,3.87-2.34A2.65,2.65,0,0,0,25.92,24.73Z" transform="translate(0 -3.21)"/><path class="cls-1" d="M45.31,11.14a2.63,2.63,0,0,0,1.82-.73h0a2.62,2.62,0,0,0-.3,1.22,2.64,2.64,0,1,0,.83-1.92h0A2.64,2.64,0,1,0,45.31,11.14Z" transform="translate(0 -3.21)"/><ellipse class="cls-1" cx="60.79" cy="16.99" rx="2.64" ry="2.64"/><circle class="cls-1" cx="82.18" cy="68.85" r="2.64"/><circle class="cls-1" cx="31.34" cy="59.53" r="2.64"/><circle class="cls-1" cx="40.9" cy="36.88" r="2.64"/><circle class="cls-1" cx="44.42" cy="12.71" r="2.64"/><circle class="cls-1" cx="69.09" cy="15.73" r="2.64"/><circle class="cls-1" cx="77.15" cy="11.45" r="2.64"/><circle class="cls-1" cx="73.37" cy="33.35" r="2.64"/><circle class="cls-1" cx="65.32" cy="31.34" r="2.64"/><circle class="cls-1" cx="26.55" cy="34.36" r="2.64"/><path class="cls-1" d="M61.67,32A2.64,2.64,0,1,0,59,34.68,2.64,2.64,0,0,0,61.67,32Z" transform="translate(0 -3.21)"/><circle class="cls-1" cx="55.25" cy="20.27" r="2.64"/><circle class="cls-1" cx="43.17" cy="18" r="2.64"/><path class="cls-1" d="M37.63,15A2.64,2.64,0,1,0,35,12.4,2.63,2.63,0,0,0,37.63,15Z" transform="translate(0 -3.21)"/><path class="cls-1" d="M59.4,41.34A2.63,2.63,0,0,0,58,39a2.62,2.62,0,0,0,.11-0.74,2.64,2.64,0,1,0-3.87,2.34A2.65,2.65,0,0,0,54.74,43l-0.14.09a2.62,2.62,0,0,0-1.94-.86,2.72,2.72,0,0,0-.48,0,2.64,2.64,0,1,0-2.52,1.86,2.58,2.58,0,0,0,.47,0,2.68,2.68,0,0,0-.12.79,2.62,2.62,0,0,0,.27,1.15,2.65,2.65,0,1,0,1,1.1,2.64,2.64,0,0,0,2.78,0,2.64,2.64,0,0,0,4-3.5A2.65,2.65,0,0,0,59.4,41.34Z" transform="translate(0 -3.21)"/><path class="cls-1" d="M107.86,53.3h-0.23a2.64,2.64,0,1,0-3.74-.73,3.28,3.28,0,0,0-.45-0.17,3.94,3.94,0,0,0-1.14,0,2.64,2.64,0,1,0-2.93.35c-0.41,0-.83.07-1.25,0.09a2.64,2.64,0,0,0-4.43-1.32c-4.14-2.72-5-4-5-4s0.8-.91,1.83-2a2.62,2.62,0,0,0,1,.19A2.65,2.65,0,0,0,94,42.31,13.92,13.92,0,0,1,96.7,41l0,0.06h0a2.64,2.64,0,0,0-1.31,2.06h0a2.64,2.64,0,1,0,3.5,2.73h0a2.65,2.65,0,0,0,1.77-2.5,2.61,2.61,0,0,0-.28-1.17h0l0,0h0l0,0a2.64,2.64,0,0,0,.84-0.76h0a2.64,2.64,0,0,0,5.22-.58,2.6,2.6,0,0,0-.16-0.89h0v0h0v0l0.28,0A2.64,2.64,0,1,0,105,35.25v0h0v0h0c0-.07,0-0.13,0-0.2a2.65,2.65,0,1,0-1,2.06h0l0,0c0,0.06,0,.13,0,0.2a2.62,2.62,0,0,0,.16.9h0l-0.28,0a2.63,2.63,0,0,0-2.15,1.11h0a2.66,2.66,0,0,0-2.31-2h0a2.65,2.65,0,0,0-2.59-2.09H96.63a2.69,2.69,0,0,0-.12-0.51h0A2.64,2.64,0,1,0,94.85,30a2.65,2.65,0,0,0-3.49-2h0l0,0h0l0,0a2.64,2.64,0,0,0-1.41-2.12,2.64,2.64,0,0,0-4.11-3,2.64,2.64,0,1,0-4.4,2,2.64,2.64,0,0,0,4.69,2.31l0.14,0.08a2.64,2.64,0,0,0,.12,2.13h0A2.63,2.63,0,0,0,84.5,33a2.63,2.63,0,0,0-2.18,2.6,2.67,2.67,0,0,0,0,.4,2.62,2.62,0,0,0-1.11-.27h0a2.64,2.64,0,1,0-2.13,1h0a2.64,2.64,0,0,0-.57,1.64,2.68,2.68,0,0,0,.1.73h0v0h0v0A2.58,2.58,0,0,0,77.9,39a2.64,2.64,0,0,0-2.64,2.61h0a2.64,2.64,0,1,0-4.21,3.19h-0.2a2.64,2.64,0,0,0-2.54,1.91A2.63,2.63,0,0,0,66.58,46a2.66,2.66,0,0,0-.72.1c0.35-1,.8-2.35,1.3-3.8a2.64,2.64,0,1,0,1.73-4.84c1.25-3.33,2.5-6.27,3.23-6.74a4.83,4.83,0,0,1,3.53-.28,6.22,6.22,0,0,0,2,.15c1.45-.25,3.82-3.55,3.82-3.55s-2.75,2.7-3.82,2.89S72.89,29.5,73,28.87a23.74,23.74,0,0,0,.55-5.57,2.63,2.63,0,0,0,2.11,1.06h0.23a2.64,2.64,0,1,0,1.53-.49H77.17a2.64,2.64,0,1,0-3.66-3.71c-0.06-2.66-.21-4.83-0.21-4.83S73.23,16.67,73,20.7c-0.31,4.92-.87,5.54-0.87,5.54-0.18.64-.42,1.36-0.71,2.12a2.65,2.65,0,1,0-1.18,2.9c-0.94,2.16-2.06,4.49-3.16,6.67a2.63,2.63,0,0,0-1.12,2.16v0L65.51,41a2.64,2.64,0,1,0-2.43,4.51l-0.57,1-3.12,4.42c0-.09,0-0.17,0-0.26A2.65,2.65,0,1,0,57.9,53l-2.63,3.73a14.07,14.07,0,0,0-2.08-1.47,2.64,2.64,0,1,0-4.68-2.44c-0.86-.39-1.8-0.8-2.86-1.22-4.54-1.82-7.53-6-9.22-9.38a29.38,29.38,0,0,0,4.19-9.41A12.89,12.89,0,0,1,42,29.7a2.64,2.64,0,0,0,1.35-1.89,20.83,20.83,0,0,1,5.77-4.73s6.44-4.5,7.79-4.69c5.29-.71,5.29-3.47,7-4.38,2.39-1.64,7.83-1.94,7.83-1.94a42.25,42.25,0,0,1-4.53-.41A2.64,2.64,0,1,0,64,13.16C62.23,15,60,17.08,59,17.42a10.7,10.7,0,0,1-4.35.26l1.18-4.31,0.34,0a2.67,2.67,0,1,0-.34,0c-0.13.32-1.62,4.08-2.07,5a13.8,13.8,0,0,1-4,2.91s-0.17-.85-0.46-1.8a2.64,2.64,0,1,0-1-2.71c-0.91-2.25-2.19-5.35-2.19-5.35l1.44,5.26s1.64,4.23,1.14,5.37c-0.21.48-3.08,2.2-5.41,4.4A2.64,2.64,0,1,0,40.52,30c-0.06.15-.11,0.3-0.15,0.45a30.71,30.71,0,0,1-2.19,6.07,25.73,25.73,0,0,1-2.69,3.2,2.62,2.62,0,0,0-.72-1.7l0-.07c-0.18-.9-0.64-4.66-1.09-8.2a2.64,2.64,0,0,0,.11-0.24h0a2.64,2.64,0,1,0-.85-5.16A9.06,9.06,0,0,0,32.66,23a7.09,7.09,0,0,0-3.76-3.05,2.64,2.64,0,0,0-2.6-3.14,2.63,2.63,0,0,0-1.61.55,12,12,0,0,1-1.52-1.89,15.13,15.13,0,0,0,1.21,2.17,2.64,2.64,0,1,0,4.17,3.18A4.06,4.06,0,0,1,30.94,23a6.82,6.82,0,0,1,.65,2.35,2.63,2.63,0,0,0-.3.54h0v0l0,0.07,0-.11A2.64,2.64,0,1,0,32.23,31h0c0.27,3.16.42,6,.42,6V37.2a2.64,2.64,0,0,0-2.46,2.63,2.59,2.59,0,0,0,.09.68,2.67,2.67,0,1,0,1.33,1.66,2.64,2.64,0,0,0,1.22.3h0a14.38,14.38,0,0,0-1.48,1.72,8.67,8.67,0,0,0-.71,7,18.09,18.09,0,0,1-7,.79,16.62,16.62,0,0,0-2.59.19h0a2.64,2.64,0,0,0-1.47-4.84h0l-0.15.13,0,0,0.11-.1h0a2.63,2.63,0,0,0,.65-2.75h0v0h0l0,0a2.64,2.64,0,1,0-3.38-2.53A2.68,2.68,0,0,0,17,43h0a2.6,2.6,0,0,0-.59.25l-0.3-.15a2.64,2.64,0,1,0-4.54-1.84,2.6,2.6,0,0,0,.05.51H11.45a2.65,2.65,0,0,0-2.19,1.17h0A2.64,2.64,0,1,0,8.81,46c0,0.06,0,.11,0,0.17A2.63,2.63,0,0,0,10,48.34a2.64,2.64,0,0,0-.86,1.95,2.74,2.74,0,0,0,.06.54,2.67,2.67,0,0,0-.53-0.05A2.64,2.64,0,0,0,6,53.31H6a2.65,2.65,0,0,0-1.14-.26h0a2.63,2.63,0,0,0,.39-1.29h0a2.64,2.64,0,1,0-3-2.72h0a2.64,2.64,0,0,0,.37,5.26h0a2.64,2.64,0,1,0,4.89,1.51h0a2.65,2.65,0,0,0,3.78-2.39,2.69,2.69,0,0,0-.06-0.55h0a2.61,2.61,0,0,0,.53.05,2.64,2.64,0,0,0,1.44-4.86,2.65,2.65,0,0,0,.36-0.4,2.62,2.62,0,0,0,2.83.12,2.61,2.61,0,0,0,1.32.36h0a2.65,2.65,0,0,0-.69,2.62h0a2.64,2.64,0,1,0-1.34,5.11h0a2.65,2.65,0,0,0-1.21,1.33v0h0v0h0a2.64,2.64,0,1,0,0,1.89,2.64,2.64,0,0,0,5-.18h0a2.64,2.64,0,1,0,3-3.54,9.3,9.3,0,0,1,.08-1.51c0.19-.89,3.5-0.77,6-0.66a3.53,3.53,0,0,0,1.05,0c0.71-.11,1.36-0.22,1.71.69,0.38,0.59.77,1.12,1.15,1.6A2.64,2.64,0,1,0,36.5,59a8.75,8.75,0,0,0,5.62,1.45,11.53,11.53,0,0,1,1.3-.4,2.62,2.62,0,0,0-.12,1.6h0A2.65,2.65,0,1,0,44,63.49a2.68,2.68,0,0,0-.07-0.6h0a2.64,2.64,0,0,0,4.19-3.14,7.18,7.18,0,0,1,2.9,1.1C52.68,64.49,54.5,72.33,54.23,74s-1.85,1.35-1.71,2.76,1.68,2.61,1.18,3.28a9,9,0,0,1-3.91,4.82l16.56,0s-3.82-2.51-4.1-5.1A15.83,15.83,0,0,1,62,76.24,2.35,2.35,0,0,1,63.3,74,1.59,1.59,0,0,0,64,71.63a8.62,8.62,0,0,1-2.37-1.71,5.68,5.68,0,0,1-.26-3,9.69,9.69,0,0,1,2.11-4.21c1-.9,6.53-6.82,10.24-6.32a3.57,3.57,0,0,1,.63.06,2.68,2.68,0,0,0-.05.54,2.63,2.63,0,0,0,1.53,2.39h0a2.65,2.65,0,0,0-1,.76H74.64a2.64,2.64,0,1,0,2.07,4.28H76.9a2.64,2.64,0,0,0,2.64-2.65,2.81,2.81,0,0,0,0-.37h0v0c1.38,3,3.47,3.63,4.05,5.28,0.05,0.16.12,0.32,0.19,0.48a2.63,2.63,0,0,0,2,3.56l0,0v0a2.64,2.64,0,1,0,.42-5.25H86c0.63-.9,1.74-0.89,2.4-1.14,0.4-.12.78-0.24,1.14-0.37a2.64,2.64,0,1,0,5,1.31,2.62,2.62,0,0,0,.56.27,2.64,2.64,0,1,0,4,2.51,2.62,2.62,0,0,0,1.39.4,2.64,2.64,0,1,0-2.63-2.87,2.65,2.65,0,0,0-.56-0.27,2.64,2.64,0,1,0-3.58-3.66,20.41,20.41,0,0,1-3.32,1,31.8,31.8,0,0,0-3.58.9,2.65,2.65,0,1,0-4.34,0c-1.3-.82-2.57-2.55-3.31-5.29a2.64,2.64,0,0,0-3.91-3.37c-1-.34-1.78-0.56-1.75-1,0.49-1.73,2.15-3,3.91-3.93a2.62,2.62,0,0,0,2.94-1.18l0.52-.15a9.22,9.22,0,0,1,6,.27,2.65,2.65,0,0,0-1.18,1.51A2.68,2.68,0,0,0,85,50.28a2.64,2.64,0,1,0,2.53,3.42h0a2.72,2.72,0,0,0,.74.11,2.63,2.63,0,0,0,2.64-2.64,2.58,2.58,0,0,0,0-.32l-1-.58h0l1,0.57,2.32,1.4A2.64,2.64,0,1,0,98.1,54l1.11-.09c0.62,0,1.31-.09,2-0.12a2.65,2.65,0,1,0,2.28,0,9.39,9.39,0,0,1,2.33.44A2.64,2.64,0,1,0,107.86,53.3Zm-1.87-14,0,0h0Zm-0.51-.53h0Zm-0.3-.2,0,0h0Zm-0.25-3.12v0h0Zm-0.09,2.95h0Zm-0.08-2.34V36l0,0.06h0Zm-0.59.87h0Zm-2.95,3.46h0v0ZM100,41.58l0,0h0Zm-1.52-.82h-0.1l0.1,0h0Zm0.33,0.07-0.06,0h0l0.07,0h0ZM99.18,41l-0.07,0h0l0.08,0h0Zm0.23,0.12,0,0,0,0h0Zm0.36,0.26h0l0,0h0ZM99.43,37.8h0s0,0,0,0,0,0,0,0h0Zm0,0.46v0h0ZM99.15,39l0-.08h0l0,0.09h0Zm-0.44.63v0l0,0h0Zm-0.21.21h0Zm-0.31.65,0.07,0,0.32-.1,0.08,0,0.28-.08,0.05,0,0.21-.06h0l0.18,0h0l0.11,0h0s-0.64.16-1.54,0.45Zm-0.87.34h0Zm0.73-.1h0Zm-0.18-.48h0l0,0Zm-0.06.37h0L98,40.54l-0.39.13Zm-1,.34,0.06,0,0.42-.15,0.07,0,0.11,0L96.73,41ZM76.87,24h0l0,0h0Zm-0.35.15,0.07,0h0l-0.09,0h0Zm-0.25.07h0ZM31.17,26.2v0.06Zm-0.07,1v0h0v0Zm0-.87c0,0.05,0,.1,0,0.15s0-.1,0-0.15h0Zm0,1.09h0l0,0.11h0Zm0.1,0.33,0,0h0Zm0.35,0.66h0l0.07,0.09h0Zm0.17,0.21h0l0.07,0.08h0Zm0.2,0.2,0,0,0.05,0ZM19.6,43.61h0Zm-9.38,8.79,0,0h0Zm0.32,0.21h0Zm0.33,0.15,0.05,0h0ZM11.71,42h0Zm0.12,0.3,0,0h0Zm0.57,0.8,0,0h0ZM13,44h0Zm0.22-.26h0l0,0Zm4.22-.81h0Zm0.34,0h0ZM14.65,57.61v0h0Zm0,0.48v0h0v0h0Zm4.73-10.55-0.1.08,0.1-.07h0Zm-0.15-4.19h0Zm-0.08,4.36h0l-0.08,0ZM19,43.16h0l0,0ZM18.9,52.56h0ZM18.64,52h0l0,0h0Zm-0.18-.27h0l0,0h0Zm-0.33-8.82h0ZM18,48.12h0Zm4,7.18a2.63,2.63,0,0,0-2.54,1.93h0a2.65,2.65,0,0,0-1.85-1.6h0A2.63,2.63,0,0,0,19,53.3v0a6.62,6.62,0,0,1,2.59.18,6.79,6.79,0,0,1,.49,1.84H22ZM33.66,29.69v0ZM36,53.42a2.64,2.64,0,0,0,.15.86c-1.52-2.09-3.27-5.23-2.7-7.38a7.37,7.37,0,0,1,.72-1.73,12.65,12.65,0,0,0,2.56,5.06c0.27,0.27.54,0.54,0.82,0.8A2.64,2.64,0,0,0,36,53.42Zm7.57,8.91h0Zm-1.7-4c-2.38-.21-2.61-0.44-4.56-2.64A2.64,2.64,0,0,0,41.22,54c1.84,1.31,3.27,2.12,3.27,2.12A2.26,2.26,0,0,1,41.86,58.34ZM93.57,62a2.64,2.64,0,0,0-.17.73,2.63,2.63,0,0,0-.6-0.28ZM83.38,63.91l-0.07,0,0.08,0h0ZM78,59.35h0a2.51,2.51,0,0,0,.45-0.27A4.62,4.62,0,0,1,79,60.19a2.64,2.64,0,0,0-1-.85l0,0h0Zm-0.26.1,0.05,0h0l-0.08,0h0Zm-0.55.12h0Zm-0.58,0h0ZM80.83,35.7h0Zm-0.27.05H80.49Zm-0.43,5h0Zm-0.06-4.82h0L80,36h0Zm-0.2,4.69-0.07,0h0l0.05,0h0Zm-0.32-.22,0,0,0,0h0Zm0-4.13h0ZM79.06,39.9l0,0.06h0l-0.06-.08h0Zm-0.18-.26,0,0.07h0l-0.05-.09h0Zm-0.14-.27,0,0h0l0,0h0Zm-3.12,2.92h0v0h0v0Zm6.93,0.19a2.64,2.64,0,0,0-1.17,3.69h0a6.78,6.78,0,0,0-.89,0,2.64,2.64,0,0,0-5,1.2,2.62,2.62,0,0,0,0,.47c-0.84.52-1.57,1.06-2.28,1.48-2.5,1.47-13.53,9.8-13.53,9.8a9,9,0,0,1,.52-4.61c0.67-1.91,2.54-3.79,3.77-5.11a2.64,2.64,0,0,0,5.07,0,2.64,2.64,0,0,0,3.81-3.63h0.2a2.64,2.64,0,0,0,2.64-2.6h0a2.65,2.65,0,0,0,4.79-1.55,2.67,2.67,0,0,0-.11-0.74h0a2.68,2.68,0,0,0,.73.1,2.64,2.64,0,0,0,1.23-.3,2.6,2.6,0,0,0,.17,1.81h0Zm7.8-13.81,0,0h0Zm-0.45.63h0v0Zm-0.25.76v0Zm0,0.58s0,0.07,0,.1,0-.15,0-0.23S89.62,30.59,89.62,30.64Zm-0.47-.1h0l0,0h0Zm-0.2-.26h0l0-.05h0Zm-0.55-.47h0l-0.06,0h0Zm-0.3-.16h0ZM89.61,32a2.63,2.63,0,0,0-.29-1.2h0v0h0l0,0,0.3-.09h0a2.64,2.64,0,0,0,4.32,1.81,2.76,2.76,0,0,0,.1.36h0a2.64,2.64,0,0,0-2.65,2.64c0,0.06,0,.11,0,0.17h0a2.65,2.65,0,0,0-3.78,0h0c0-.06,0-0.11,0-0.17a2.63,2.63,0,0,0-.17-0.92A2.65,2.65,0,0,0,89.61,32Zm2,4.62h0Zm-0.15-.44v0h0ZM87,29.39h0ZM83.26,46.58l-0.1,0,0.11,0h0Zm1,0.37-0.44-.17-0.08,0L84.3,47Zm0.68,0.22c-0.2-.05-0.39-0.11-0.57-0.18h0c0.19,0.07.39,0.13,0.59,0.19h0Zm2,0.11a4.83,4.83,0,0,1-1.89-.1,2.65,2.65,0,0,0,1.38-2.32,2.61,2.61,0,0,0-.25-1.13l-0.05,0h0l0,0h0A2.64,2.64,0,1,0,83.73,39a2.64,2.64,0,0,0,.09-0.67,2.53,2.53,0,0,0,0-.4A2.61,2.61,0,0,0,85,38.2a2.64,2.64,0,0,0,1.89-.8h0c0,0.05,0,.11,0,0.16a2.64,2.64,0,1,0,5.29,0c0-.05,0-0.11,0-0.16a2.64,2.64,0,0,0,1.89.8h0.15a2.65,2.65,0,0,0,2.12,2.22,12.16,12.16,0,0,0-2.56,1.28A2.64,2.64,0,1,0,90,45.31,5.4,5.4,0,0,1,86.85,47.28Zm-1.32-3.36,0.07,0h0Zm0.25-.07h0l0.06,0Zm3.29,6,0.21,0.12h0Zm11.46,2.81-0.13,0-0.66.08,0.79-.09,0.34,0Zm5.65,1.77h0l0.14,0.06Zm0.14-.61-0.12.09h0l-0.12-.08h0.24Zm0.33-.05h0l0.06,0h0Z" transform="translate(0 -3.21)"/><circle class="cls-1" cx="17.74" cy="20.26" r="2.64"/><circle class="cls-1" cx="50.72" cy="2.64" r="2.64"/><circle class="cls-1" cx="85.2" cy="14.22" r="2.64"/><circle class="cls-1" cx="20.76" cy="10.19" r="2.64"/><path class="cls-1" d="M395.47,37.53V35.89h0.45a0.77,0.77,0,0,1,.89.83,0.76,0.76,0,0,1-.89.81h-0.45Zm1.29,0.35a1.28,1.28,0,0,0,.72-1.18,1.39,1.39,0,0,0-1.57-1.38h-1.12V39h0.68V38.07h0.46a1,1,0,0,0,.22,0l0.6,0.91h0.74Zm-0.78,2a2.76,2.76,0,0,1,0-5.52,2.76,2.76,0,1,1,0,5.52m0,0.54a3.3,3.3,0,1,0,0-6.59,3.3,3.3,0,1,0,0,6.59" transform="translate(0 -3.21)"/></svg>